# xmcd
#
# Track frame offsets:
#	150
#	16207
#	32137
#	51887
#	66427
#	87777
#	105220
#	118220
#	134745
#	147130
#	163187
#	179117
#	198867
#	213407
#	234757
#	252197
#	265200
#	281722
#
# Disc length: 3921 seconds
#
# Revision: 1
# Processed by: cddbd v1.5.2PL0 Copyright (c) Steve Scherf et al.
# Submitted via: audiograbber 1.83.01
#
DISCID=0a0f4f12
DTITLE=Top Hits Monthly - THM-R0501
DYEAR=2005
DGENRE=Country -Karaoke
TTITLE0=Franz Ferdinand - This Fire (vocal)
TTITLE1=Social Distortion - Reach For The Sky (vocal)
TTITLE2=Green Day - Boulevard Of Broken Dreams (vocal)
TTITLE3=My Chemical Romance - I'm Not OK (I Promise) (vocal)
TTITLE4=A Perfect Circle - Imagine (vocal)
TTITLE5=Jet - Look What You've Done (vocal)
TTITLE6=The Explosion - Here I Am (vocal)
TTITLE7=Simple Plan - Welcomne To My Life (vocal)
TTITLE8=Collective Soul - Counting The Days (vocal)
TTITLE9=Franz Ferdinand - This Fire
TTITLE10=Social Distortion - Reach For The Sky
TTITLE11=Green Day - Boulevard Of Broken Dreams
TTITLE12=My Chemical Romance - I'm Not OK (I Promise)
TTITLE13=A Perfect Circle - Imagine
TTITLE14=Jet - Look What You've Done
TTITLE15=The Explosion - Here I Am
TTITLE16=Simple Plan - Welcome To My Life
TTITLE17=Collective Soul - Counting The Days
EXTD=
EXTT0=
EXTT1=
EXTT2=
EXTT3=
EXTT4=
EXTT5=
EXTT6=
EXTT7=
EXTT8=
EXTT9=
EXTT10=
EXTT11=
EXTT12=
EXTT13=
EXTT14=
EXTT15=
EXTT16=
EXTT17=
PLAYORDER=
